<?xml version="1.0" standalone="no"?>
<!DOCTYPE svg PUBLIC "-//W3C//DTD SVG 20010904//EN"
 "http://www.w3.org/TR/2001/REC-SVG-20010904/DTD/svg10.dtd">
<svg version="1.0" xmlns="http://www.w3.org/2000/svg"
 width="980.000000pt" height="569.000000pt" viewBox="0 0 980.000000 569.000000"
 preserveAspectRatio="xMidYMid meet">
<metadata>
Created by potrace 1.16, written by Peter Selinger 2001-2019
</metadata>
<g transform="translate(0.000000,569.000000) scale(0.100000,-0.100000)"
fill="#000000" stroke="none">
<path d="M4723 5440 c-135 -35 -270 -94 -321 -139 -9 -9 -34 -29 -56 -45 -49
-37 -115 -103 -152 -152 -16 -22 -31 -41 -34 -44 -16 -14 -78 -128 -100 -185
-35 -88 -78 -280 -66 -292 8 -8 150 -22 229 -22 l67 -1 0 33 c0 17 7 59 14 92
57 238 229 408 474 466 71 17 109 20 202 16 175 -7 295 -56 420 -174 108 -102
165 -214 190 -378 6 -38 12 -70 13 -71 8 -5 271 26 278 33 9 9 -6 117 -29 213
-13 52 -81 202 -94 208 -5 2 -8 9 -8 14 0 19 -81 120 -150 187 -120 117 -271
201 -430 239 -117 28 -343 29 -447 2z"/>
<path d="M5640 3715 c0 -3 7 -16 14 -28 8 -12 20 -43 25 -69 32 -141 -79 -278
-226 -278 -86 0 -139 28 -193 102 l-28 38 -20 -49 c-81 -188 -42 -394 102
-536 136 -133 322 -176 498 -116 229 79 364 310 319 547 -19 101 -50 163 -118
235 -69 73 -125 109 -215 140 -52 17 -158 27 -158 14z"/>
<path d="M4216 3665 c56 -112 12 -249 -101 -308 -55 -29 -145 -29 -201 0 -39
21 -96 76 -107 105 -18 44 -68 -123 -68 -227 0 -141 51 -257 155 -352 160
-147 397 -165 582 -45 272 176 286 577 27 774 -76 57 -157 89 -245 95 l-67 6
25 -48z"/>
<path d="M3195 2568 c-4 -370 -5 -777 -3 -904 l3 -231 30 -25 c35 -31 105 -42
210 -32 l73 7 10 36 c6 20 19 63 29 96 117 404 475 781 876 925 52 19 69 30
44 30 -25 0 -109 55 -100 65 5 4 -3 5 -17 1 -14 -4 -59 -13 -100 -21 -326 -62
-655 102 -803 400 -29 58 -67 170 -67 198 0 22 -30 50 -80 74 -19 9 -47 25
-62 35 -14 10 -28 18 -31 18 -2 0 -8 -303 -12 -672z"/>
<path d="M5178 2755 c-2 -2 -20 -5 -41 -7 -20 -1 -37 -5 -37 -8 0 -3 23 -16
51 -30 70 -34 151 -117 180 -184 24 -54 25 -55 99 -82 362 -129 676 -404 836
-731 l35 -73 34 26 c30 22 77 76 148 168 12 15 28 34 35 42 7 8 10 14 5 14 -4
0 -3 4 3 8 10 7 86 155 91 177 1 5 10 33 21 62 11 28 18 54 15 56 -2 3 3 22
12 42 8 21 13 40 11 42 -2 2 1 21 6 41 13 53 10 329 -4 352 -10 16 -21 18 -82
14 -39 -3 -98 -9 -131 -14 -33 -5 -80 -12 -105 -15 -113 -12 -135 -16 -147
-26 -7 -6 -10 -15 -7 -20 3 -5 -3 -9 -13 -9 -10 0 -58 -18 -108 -39 -121 -52
-188 -65 -330 -64 -97 0 -136 5 -201 25 -106 32 -220 98 -304 175 -37 34 -69
60 -72 58z"/>
<path d="M5313 2374 c-18 -14 -51 -57 -74 -95 -46 -80 -207 -248 -257 -268
-26 -11 -32 -19 -32 -43 0 -27 2 -28 23 -17 62 33 223 211 272 301 24 44 53
78 84 98 13 9 22 23 20 33 -4 14 -8 13 -36 -9z"/>
<path d="M4947 1525 c-4 -26 -7 -70 -7 -96 l0 -48 363 -3 c205 -2 365 1 368 6
4 5 17 6 28 3 12 -3 36 -1 54 4 18 5 48 11 67 14 43 6 61 10 80 18 8 4 51 19
95 35 100 37 107 52 25 52 -34 0 -114 4 -178 10 -64 5 -178 12 -252 14 -171 6
-473 23 -566 32 l-71 6 -6 -47z"/>
</g>
</svg>
