<?xml version="1.0" standalone="no"?>
<!DOCTYPE svg PUBLIC "-//W3C//DTD SVG 20010904//EN"
 "http://www.w3.org/TR/2001/REC-SVG-20010904/DTD/svg10.dtd">
<svg version="1.0" xmlns="http://www.w3.org/2000/svg"
 width="1024.000000pt" height="1024.000000pt" viewBox="0 0 1024.000000 1024.000000"
 preserveAspectRatio="xMidYMid meet">

<g transform="translate(0.000000,1024.000000) scale(0.100000,-0.100000)"
fill="#000000" stroke="none">
<path d="M6709 8073 c-23 -3 -76 -29 -143 -71 -732 -462 -1002 -627 -1087
-666 -162 -74 -366 -90 -544 -42 -55 15 -104 31 -109 36 -6 6 -16 10 -24 10
-8 0 -66 30 -129 68 -62 37 -128 76 -146 86 -44 26 -309 190 -377 234 -30 19
-71 45 -90 57 -19 12 -61 38 -92 58 -64 41 -80 45 -72 20 5 -14 4 -15 -4 -4
-6 8 -8 20 -5 28 3 7 1 13 -5 13 -5 0 -32 15 -58 33 -27 19 -60 39 -74 46 -24
11 -24 11 -6 -3 11 -9 24 -16 28 -16 5 0 8 -55 7 -122 -2 -172 -1 -196 11
-178 5 8 12 11 16 7 4 -4 -3 -17 -15 -28 -12 -12 -20 -28 -17 -36 3 -8 6 -35
6 -59 0 -38 3 -44 21 -44 15 0 19 5 15 16 -3 8 -2 12 4 9 5 -3 9 -17 8 -30 -2
-26 -25 -34 -44 -15 -8 8 -9 -27 -5 -122 1 -10 7 -18 14 -18 7 0 13 -9 14 -20
1 -11 -2 -20 -8 -20 -5 0 -9 8 -10 18 -1 11 -4 8 -8 -8 -6 -21 -5 -74 1 -167
2 -16 11 -16 26 -1 16 16 15 3 0 -22 -11 -16 -9 -22 7 -34 22 -17 60 -21 50
-6 -3 6 4 10 17 9 13 0 17 -3 11 -6 -7 -2 -13 -14 -13 -25 0 -15 -4 -18 -22
-12 -13 3 -27 13 -31 20 -12 21 -26 17 -20 -6 3 -11 9 -17 14 -14 5 3 9 -1 9
-10 0 -9 -8 -13 -25 -11 -28 3 -26 7 -27 -105 0 -93 1 -102 11 -96 5 3 21 -6
35 -19 18 -17 22 -25 12 -25 -8 0 -18 5 -21 10 -12 19 -35 10 -35 -14 0 -26
23 -51 39 -42 5 3 12 0 14 -6 4 -10 8 -9 16 2 5 8 14 11 18 6 4 -5 2 -11 -4
-13 -7 -3 -13 -11 -13 -18 0 -7 -6 -15 -14 -18 -10 -4 -12 0 -9 14 3 10 0 19
-6 19 -6 0 -11 -11 -11 -25 0 -37 -18 -31 -23 8 -2 17 -5 -3 -5 -45 -1 -42 -5
-84 -8 -93 -5 -11 0 -18 15 -22 11 -3 19 -9 16 -13 -3 -5 -38 8 -78 29 -39 21
-148 77 -242 126 -93 48 -174 91 -180 95 -5 4 -53 29 -105 55 -52 27 -147 76
-210 110 -102 55 -191 102 -534 279 -49 25 -91 46 -93 46 -13 0 38 -39 65 -49
17 -8 32 -18 32 -23 0 -5 4 -7 8 -4 5 3 9 -12 10 -34 2 -31 -1 -38 -13 -34
-11 5 -13 2 -9 -10 3 -9 10 -16 16 -16 5 0 7 -52 4 -132 -5 -158 -4 -147 -16
-128 -14 22 -12 -2 5 -50 18 -50 18 -53 5 -45 -6 3 -10 -1 -10 -10 0 -11 -7
-15 -22 -13 -11 2 -23 -3 -25 -9 -3 -7 2 -13 11 -13 10 0 16 -9 16 -26 0 -14
4 -23 10 -19 5 3 10 19 10 35 0 16 5 32 10 35 7 4 9 -26 8 -83 -2 -50 -6 -88
-10 -86 -5 3 -8 1 -8 -5 0 -5 4 -13 10 -16 6 -3 10 -12 10 -18 0 -7 -4 -6 -10
3 -8 13 -10 13 -10 -2 0 -9 4 -20 10 -23 13 -8 13 -65 0 -65 -6 0 -8 11 -4 25
8 34 -1 31 -20 -5 -8 -17 -11 -28 -6 -25 16 10 40 -7 40 -29 0 -17 -2 -18 -10
-6 -6 10 -10 11 -10 3 0 -7 -11 -15 -25 -19 -16 -4 -25 -13 -25 -26 0 -17 2
-16 26 7 28 28 44 26 41 -5 -1 -14 -6 -18 -18 -15 -9 3 -22 -1 -28 -9 -7 -8
-19 -12 -27 -9 -8 3 -14 0 -14 -6 0 -6 6 -11 13 -11 9 0 9 -2 -1 -9 -11 -6
-10 -10 3 -15 10 -4 15 -12 11 -22 -4 -12 -1 -14 13 -9 11 3 22 2 25 -4 7 -11
-41 -24 -56 -15 -6 4 -9 1 -6 -7 3 -8 11 -13 18 -11 8 2 10 -3 7 -13 -4 -8 -2
-15 3 -15 6 0 10 9 10 21 0 12 5 19 13 16 6 -2 12 -11 12 -20 0 -8 3 -19 7
-22 4 -4 6 16 4 44 -1 28 2 45 6 38 12 -18 10 -119 -2 -112 -5 3 -10 -1 -10
-9 0 -9 5 -16 10 -16 6 0 10 -11 10 -25 0 -18 -7 -26 -25 -31 -27 -7 -34 -24
-10 -24 8 0 15 -4 15 -10 0 -5 -4 -10 -8 -10 -4 0 -8 -9 -8 -20 0 -34 20 -16
23 20 6 67 13 41 11 -39 -1 -45 -5 -84 -10 -87 -4 -3 -8 0 -8 5 0 6 -5 11 -11
11 -6 0 -9 -6 -6 -14 3 -8 1 -16 -4 -18 -7 -2 -6 -13 2 -30 6 -15 16 -25 20
-22 5 3 5 14 -1 24 -13 24 -13 30 3 30 8 0 13 -19 14 -55 2 -30 -1 -55 -6 -55
-15 0 -23 18 -11 25 20 12 9 21 -20 17 -17 -2 -30 -8 -30 -13 0 -5 3 -9 8 -9
4 0 19 -10 33 -23 21 -17 27 -31 26 -59 -1 -26 -5 -34 -12 -28 -8 7 -10 0 -7
-22 5 -31 4 -31 -32 -25 -32 5 -36 4 -25 -9 11 -13 23 -13 66 3 9 4 12 -8 11
-41 -1 -25 -5 -40 -9 -35 -3 6 -9 1 -12 -10 -3 -13 0 -21 8 -21 10 0 13 -24
12 -102 0 -57 -2 -93 -4 -80 -3 12 -9 22 -15 22 -5 0 -7 -7 -4 -16 3 -9 6 -25
6 -37 0 -18 2 -19 10 -7 6 10 9 -9 9 -58 0 -42 -4 -70 -10 -67 -5 4 -9 -3 -9
-14 0 -25 -9 -26 -36 -6 -16 13 -16 14 -1 9 10 -4 17 -1 17 6 0 6 -4 8 -10 5
-6 -3 -10 0 -10 7 0 10 -2 11 -8 0 -13 -19 -60 22 -71 61 -6 23 -9 26 -10 11
-1 -32 39 -84 84 -108 22 -11 42 -24 45 -27 3 -3 21 -14 40 -24 19 -10 37 -21
40 -24 3 -4 25 -18 50 -32 46 -26 1222 -758 1340 -834 36 -23 180 -113 320
-200 246 -152 286 -177 368 -229 255 -162 443 -269 489 -279 99 -21 124 -10
498 223 77 48 273 170 435 270 427 265 660 409 700 435 19 12 132 82 250 155
216 134 252 156 325 202 43 27 97 60 196 123 35 21 134 81 219 131 172 102
234 151 256 203 12 29 14 180 12 1045 -3 1003 -3 1011 -24 1051 -27 51 -64 77
-464 317 -63 39 -160 97 -216 131 -407 250 -495 298 -534 295 -8 -1 -31 -3
-51 -5z m-2854 -196 c0 -13 9 -26 23 -32 15 -7 22 -18 21 -35 0 -15 -3 -19 -6
-10 -10 25 -27 37 -66 44 -20 4 -37 12 -37 18 0 6 9 8 20 5 15 -4 22 1 26 19
7 29 19 23 19 -9z m-31 14 c4 -5 -3 -7 -14 -4 -23 6 -26 13 -6 13 8 0 17 -4
20 -9z m-11 -71 c-3 -11 -9 -20 -14 -20 -14 0 -11 28 4 33 6 3 13 6 14 6 0 1
-1 -8 -4 -19z m47 0 c0 -5 -9 -14 -20 -20 -15 -8 -20 -8 -20 3 0 8 3 17 7 20
10 10 33 8 33 -3z m13 -48 c-6 -25 -43 -28 -51 -4 -2 8 2 10 14 5 13 -5 15 -3
9 7 -6 10 -4 12 8 7 10 -4 17 -1 17 5 0 6 2 9 5 7 2 -3 2 -15 -2 -27z m-63
-12 c0 -5 -4 -10 -10 -10 -5 0 -10 5 -10 10 0 6 5 10 10 10 6 0 10 -4 10 -10z
m90 -25 c0 -29 -2 -34 -13 -23 -14 13 -11 58 4 58 5 0 9 -16 9 -35z m-59 -5
c5 0 9 -7 9 -15 0 -9 -9 -15 -21 -15 -14 0 -19 5 -16 14 3 8 3 17 -1 19 -4 2
-1 2 6 0 8 -1 18 -3 23 -3z m9 -64 c0 -20 0 -20 16 0 14 18 15 18 4 -3 -9 -19
-8 -23 4 -23 8 0 17 6 19 13 4 7 6 6 6 -4 1 -9 -8 -19 -19 -22 -15 -4 -20 -14
-20 -41 0 -26 -4 -36 -16 -36 -10 0 -14 5 -10 15 3 9 -1 18 -9 21 -12 5 -12 8
0 20 7 8 18 14 24 14 6 0 11 5 11 10 0 6 -8 10 -17 10 -12 0 -18 8 -18 23 0
13 6 24 13 24 6 0 12 -9 12 -21z m-42 -56 c-7 -11 -16 -16 -21 -11 -12 12 0
31 19 31 12 0 12 -3 2 -20z m92 -16 c0 -14 -12 -19 -23 -8 -9 9 4 35 14 28 5
-3 9 -12 9 -20z m-1 -72 c0 -20 -3 -31 -6 -24 -2 6 -9 12 -15 12 -5 0 -16 7
-25 15 -14 14 -13 15 10 10 23 -6 25 -4 20 16 -4 15 -3 20 5 15 7 -4 12 -24
11 -44z m-82 22 c-3 -3 -12 -4 -19 -1 -8 3 -5 6 6 6 11 1 17 -2 13 -5z m43
-54 c0 -5 -4 -10 -10 -10 -5 0 -10 5 -10 10 0 6 5 10 10 10 6 0 10 -4 10 -10z
m-19 -33 c-8 -10 -2 -22 24 -52 34 -37 46 -75 24 -75 -6 0 -8 7 -5 16 9 24 -6
41 -16 18 -7 -17 -8 -16 -4 4 3 14 -1 22 -10 22 -8 0 -14 7 -14 15 0 18 -21
20 -38 3 -9 -9 -12 -8 -12 5 0 9 5 17 11 17 8 0 8 4 -1 15 -10 12 -8 14 9 10
11 -2 23 0 26 6 4 5 9 9 12 9 3 0 0 -6 -6 -13z m-16 -78 c-4 -5 -1 -9 4 -9 6
0 11 -4 11 -9 0 -5 -11 -8 -25 -8 -17 0 -25 5 -25 17 0 18 18 31 33 23 4 -2 5
-9 2 -14z m18 -46 c-10 -3 -9 -8 3 -20 8 -8 12 -18 9 -22 -9 -8 -36 30 -29 40
3 5 11 9 17 8 9 0 9 -2 0 -6z m-13 -110 c0 -16 6 -23 20 -23 11 0 20 -7 20
-15 0 -14 -4 -14 -31 1 -17 8 -28 11 -25 5 4 -6 0 -11 -8 -11 -19 0 -20 20 -4
56 10 22 10 28 0 32 -7 2 -9 8 -6 14 9 14 33 -30 34 -59z m30 37 c0 -11 -4
-20 -9 -20 -14 0 -23 18 -16 30 10 17 25 11 25 -10z m39 -2 c0 -22 -1 -22 -9
-3 -5 12 -9 14 -9 6 -1 -8 -4 -12 -7 -8 -8 7 4 27 17 27 5 0 9 -10 8 -22z m1
-72 c0 -29 -3 -37 -9 -26 -6 8 -8 17 -6 21 3 3 -4 15 -15 26 -18 20 -18 21 6
21 22 0 24 -5 24 -42z m-90 -26 c0 -5 -4 -10 -10 -10 -5 0 -10 5 -10 10 0 6 5
10 10 10 6 0 10 -4 10 -10z m40 0 c0 -5 -7 -10 -15 -10 -8 0 -15 5 -15 10 0 6
7 10 15 10 8 0 15 -4 15 -10z m50 -55 c0 -3 -7 -5 -15 -5 -8 0 -15 4 -15 9 0
5 -3 17 -7 27 -5 14 -2 13 15 -4 12 -12 22 -24 22 -27z m-50 0 c0 -14 -4 -25
-10 -25 -5 0 -10 10 -10 23 0 18 -2 19 -10 7 -5 -8 -10 -10 -10 -4 0 14 10 24
27 24 7 0 13 -11 13 -25z m10 -75 c0 -5 -4 -10 -10 -10 -5 0 -10 5 -10 10 0 6
5 10 10 10 6 0 10 -4 10 -10z m27 -35 c-13 -13 -16 -13 -21 1 -3 8 -2 12 3 9
5 -3 13 5 17 17 7 19 9 20 12 6 2 -10 -3 -25 -11 -33z m-66 -8 c-10 -9 -11 -8
-5 6 3 10 9 15 12 12 3 -3 0 -11 -7 -18z m41 -39 c10 -29 12 -30 25 -13 11 16
13 16 13 3 0 -9 -6 -19 -12 -22 -10 -5 -10 -7 0 -12 6 -3 12 -12 12 -21 0 -13
-2 -13 -15 1 -8 8 -15 18 -15 23 0 14 -35 40 -48 35 -7 -2 -12 3 -12 11 0 9 8
18 18 20 9 3 18 5 20 6 2 0 8 -13 14 -31z m15 0 c-3 -8 -6 -5 -6 6 -1 11 2 17
5 13 3 -3 4 -12 1 -19z m-27 -38 c0 -5 -4 -10 -10 -10 -5 0 -10 5 -10 10 0 6
5 10 10 10 6 0 10 -4 10 -10z m-9 -20 c12 0 17 -5 14 -10 -4 -6 -15 -8 -26 -5
-15 5 -18 3 -12 -12 6 -17 6 -17 -10 -1 -21 21 -22 42 -1 34 9 -3 25 -6 35 -6z
m32 -30 c-4 -14 0 -20 11 -20 12 0 16 -9 16 -35 0 -19 -5 -35 -11 -35 -5 0 -7
5 -4 10 3 6 -1 13 -9 16 -9 3 -16 12 -16 20 0 8 -6 11 -15 8 -8 -4 -15 -1 -15
5 0 6 6 11 14 11 7 0 16 9 19 20 3 11 7 20 10 20 3 0 3 -9 0 -20z m-9 -94 c-7
-19 -54 -28 -54 -10 0 7 12 15 28 17 15 2 28 5 29 6 1 0 0 -5 -3 -13z m36 -47
c0 -17 -4 -28 -10 -24 -5 3 -8 19 -7 34 3 38 17 29 17 -10z m-26 -46 c2 -10 4
-38 3 -63 0 -25 -2 -37 -5 -27 -4 18 -22 24 -22 7 0 -5 -4 -10 -10 -10 -5 0
-7 13 -3 31 4 21 1 34 -8 40 -11 7 -10 11 6 23 26 20 33 20 39 -1z m-57 -59
c1 -17 -1 -21 -4 -10 -4 15 -7 16 -14 5 -7 -11 -9 -11 -9 4 0 9 6 17 13 17 8
0 7 4 -3 11 -13 9 -13 10 0 6 8 -2 16 -16 17 -33z m3 -49 c0 -8 -2 -15 -4 -15
-2 0 -6 7 -10 15 -3 8 -1 15 4 15 6 0 10 -7 10 -15z m80 -9 c0 -19 -4 -23 -20
-19 -11 3 -20 10 -20 15 0 5 5 6 10 3 6 -3 13 1 16 9 9 23 14 20 14 -8z m-20
-38 c27 -29 28 -53 1 -36 -10 6 -17 18 -14 25 3 7 1 13 -5 13 -6 0 -12 -5 -14
-12 -3 -8 -9 -8 -24 0 -17 10 -17 11 -1 12 9 0 17 5 17 10 0 17 18 11 40 -12z
m-1409 -204 c11 -14 10 -18 -6 -30 -38 -28 -63 -13 -37 22 20 28 25 29 43 8z
m9 -1169 c0 -8 -4 -15 -10 -15 -5 0 -7 7 -4 15 4 8 8 15 10 15 2 0 4 -7 4 -15z"/>
<path d="M3850 6660 c0 -5 5 -10 10 -10 6 0 10 5 10 10 0 6 -4 10 -10 10 -5 0
-10 -4 -10 -10z"/>
<path d="M3528 8063 c6 -2 18 -2 25 0 6 3 1 5 -13 5 -14 0 -19 -2 -12 -5z"/>
<path d="M3578 8063 c7 -3 16 -2 19 1 4 3 -2 6 -13 5 -11 0 -14 -3 -6 -6z"/>
<path d="M3660 8026 c0 -2 7 -7 16 -10 8 -3 12 -2 9 4 -6 10 -25 14 -25 6z"/>
<path d="M2330 7271 c0 -25 6 -27 13 -6 4 8 2 17 -3 20 -6 4 -10 -3 -10 -14z"/>
<path d="M2380 7210 c0 -5 7 -10 15 -10 8 0 15 5 15 10 0 6 -7 10 -15 10 -8 0
-15 -4 -15 -10z"/>
<path d="M2430 7159 c0 -11 -4 -18 -8 -15 -4 2 -14 1 -22 -5 -13 -7 -12 -9 2
-9 29 0 48 12 48 31 0 10 -4 19 -10 19 -5 0 -10 -9 -10 -21z"/>
<path d="M2390 7160 c0 -5 5 -10 10 -10 6 0 10 5 10 10 0 6 -4 10 -10 10 -5 0
-10 -4 -10 -10z"/>
<path d="M2403 7105 c-7 -8 -13 -24 -13 -37 0 -17 3 -19 9 -9 7 11 9 11 14 0
4 -8 4 -2 1 14 -4 16 -2 27 5 27 6 0 11 5 11 10 0 14 -13 12 -27 -5z"/>
<path d="M3777 7085 c3 -22 7 -42 9 -44 8 -9 2 45 -6 64 -7 14 -8 8 -3 -20z"/>
<path d="M2440 7080 c-12 -8 -11 -10 8 -10 12 0 22 5 22 10 0 13 -11 13 -30 0z"/>
<path d="M2421 7008 c6 -24 5 -28 -12 -28 -15 0 -19 -7 -18 -32 0 -18 3 -27 6
-20 2 6 9 10 14 7 5 -4 6 0 3 8 -5 15 22 44 33 33 3 -3 1 -6 -5 -6 -17 0 -15
-40 3 -46 8 -4 15 -13 15 -22 0 -8 3 -12 7 -9 3 4 1 18 -7 31 -7 14 -10 32 -6
41 3 9 0 18 -9 21 -20 8 -19 31 2 43 14 8 13 9 -8 8 -24 -2 -25 -5 -18 -29z"/>
<path d="M2405 6910 c-4 -6 -11 -8 -16 -5 -5 4 -9 1 -9 -4 0 -6 9 -11 20 -11
11 0 20 7 20 15 0 17 -6 19 -15 5z"/>
<path d="M2421 6883 c-7 -8 -19 -12 -27 -9 -8 3 -11 0 -7 -10 6 -15 23 -20 23
-6 0 5 10 13 22 19 12 5 18 12 12 15 -5 3 -15 -1 -23 -9z"/>
<path d="M2416 6833 c-6 -14 -5 -15 5 -6 7 7 10 15 7 18 -3 3 -9 -2 -12 -12z"/>
<path d="M2391 6824 c0 -11 3 -14 6 -6 3 7 2 16 -1 19 -3 4 -6 -2 -5 -13z"/>
<path d="M2430 6784 c0 -14 -3 -15 -12 -6 -19 19 -28 14 -28 -13 0 -14 4 -25
10 -25 5 0 7 7 4 15 -4 8 -1 15 5 15 6 0 11 -6 11 -12 0 -9 3 -10 8 -2 4 6 13
13 21 15 10 4 10 7 -3 18 -14 12 -16 11 -16 -5z"/>
<path d="M2380 6700 c0 -5 5 -10 10 -10 6 0 10 5 10 10 0 6 -4 10 -10 10 -5 0
-10 -4 -10 -10z"/>
<path d="M2400 6630 c8 -5 7 -9 -4 -13 -25 -10 -19 -27 9 -25 14 1 25 8 25 15
0 7 7 13 15 13 32 0 13 15 -21 16 -20 1 -31 -2 -24 -6z"/>
<path d="M2385 6531 c3 -6 10 -9 15 -6 5 3 11 -3 14 -12 4 -14 4 -14 3 2 -1
11 -11 21 -21 23 -11 3 -16 0 -11 -7z"/>
<path d="M2430 6506 c0 -9 5 -16 10 -16 6 0 10 4 10 9 0 6 -4 13 -10 16 -5 3
-10 -1 -10 -9z"/>
<path d="M2392 6465 c0 -16 2 -22 5 -12 2 9 2 23 0 30 -3 6 -5 -1 -5 -18z"/>
<path d="M2410 6460 c0 -11 5 -20 11 -20 5 0 7 5 3 11 -3 6 0 15 7 20 11 7 10
9 -3 9 -11 0 -18 -8 -18 -20z"/>
<path d="M2390 6421 c0 -5 5 -13 10 -16 6 -3 10 -2 10 4 0 5 -4 13 -10 16 -5
3 -10 2 -10 -4z"/>
<path d="M2392 6365 c0 -16 2 -22 5 -12 2 9 2 23 0 30 -3 6 -5 -1 -5 -18z"/>
<path d="M2390 6150 c0 -11 4 -20 10 -20 5 0 6 7 3 17 -4 10 -2 14 5 9 6 -3
13 -2 17 4 3 5 -3 10 -14 10 -14 0 -21 -6 -21 -20z"/>
<path d="M2420 6127 c0 -9 -6 -14 -12 -12 -9 3 -14 -6 -15 -25 -2 -22 2 -30
14 -30 13 0 14 2 2 17 -8 9 -9 14 -3 10 12 -7 30 40 19 51 -3 3 -5 -2 -5 -11z"/>
<path d="M2398 6033 c7 -3 16 -2 19 1 4 3 -2 6 -13 5 -11 0 -14 -3 -6 -6z"/>
<path d="M2461 5954 c0 -11 3 -14 6 -6 3 7 2 16 -1 19 -3 4 -6 -2 -5 -13z"/>
<path d="M2398 5923 c-10 -2 -18 -8 -18 -13 0 -12 33 -5 38 8 2 7 2 11 0 11
-1 -1 -11 -3 -20 -6z"/>
<path d="M2390 5844 c0 -16 5 -22 19 -21 15 1 17 4 10 14 -6 7 -8 16 -5 21 3
5 -1 9 -9 9 -9 0 -15 -10 -15 -23z"/>
<path d="M2390 5780 c0 -5 5 -10 11 -10 5 0 7 5 4 10 -3 6 -8 10 -11 10 -2 0
-4 -4 -4 -10z"/>
<path d="M2421 5754 c0 -11 3 -14 6 -6 3 7 2 16 -1 19 -3 4 -6 -2 -5 -13z"/>
<path d="M2430 5710 c0 -5 5 -10 10 -10 6 0 10 5 10 10 0 6 -4 10 -10 10 -5 0
-10 -4 -10 -10z"/>
<path d="M2410 5703 c0 -7 4 -14 9 -17 5 -3 7 -15 4 -26 -3 -11 -3 -20 0 -20
12 0 13 38 1 55 -8 10 -14 14 -14 8z"/>
<path d="M2390 5670 c0 -5 5 -10 10 -10 6 0 10 5 10 10 0 6 -4 10 -10 10 -5 0
-10 -4 -10 -10z"/>
<path d="M2400 5579 c-12 -9 -12 -10 4 -5 11 4 23 1 27 -6 4 -7 11 -9 14 -6 9
9 -3 28 -18 28 -7 0 -19 -5 -27 -11z"/>
<path d="M2385 5527 c2 -17 3 -44 4 -59 1 -18 7 -28 16 -28 8 0 15 5 15 10 0
6 -5 10 -12 10 -9 0 -8 3 1 13 11 10 14 10 18 0 3 -7 9 -13 14 -13 6 0 5 9 -2
21 -6 12 -8 31 -5 43 5 19 4 20 -8 4 -17 -23 -26 -23 -26 1 0 11 -4 22 -9 25
-5 3 -7 -9 -6 -27z"/>
<path d="M2435 5430 c-4 -6 -16 -8 -28 -5 -12 2 -16 2 -9 -1 6 -3 12 -12 12
-20 0 -8 -6 -14 -12 -15 -7 0 -2 -5 11 -10 13 -5 26 -7 29 -4 3 3 0 5 -6 5
-15 0 -3 31 17 47 10 8 11 12 4 13 -6 0 -15 -5 -18 -10z"/>
<path d="M2450 5401 c0 -6 4 -13 10 -16 6 -3 7 1 4 9 -7 18 -14 21 -14 7z"/>
<path d="M2387 5349 c4 -13 9 -17 15 -11 11 11 3 32 -12 32 -4 0 -6 -9 -3 -21z"/>
<path d="M2421 5344 c0 -11 3 -14 6 -6 3 7 2 16 -1 19 -3 4 -6 -2 -5 -13z"/>
<path d="M2418 5313 c7 -3 16 -2 19 1 4 3 -2 6 -13 5 -11 0 -14 -3 -6 -6z"/>
<path d="M2408 5263 c13 -3 21 -10 19 -16 -2 -7 -11 -11 -21 -9 -9 2 -16 -2
-16 -8 0 -5 4 -10 9 -10 5 0 17 -3 27 -7 12 -5 15 -3 9 6 -4 8 -2 17 6 22 12
8 12 11 -1 19 -8 5 -24 9 -35 8 -17 -1 -16 -1 3 -5z"/>
<path d="M7870 2520 c0 -276 -4 -460 -9 -460 -5 0 -19 12 -30 26 -34 44 -132
114 -201 146 -66 30 -226 68 -286 68 -18 0 -80 -9 -136 -20 -483 -92 -762
-619 -594 -1120 71 -213 211 -378 404 -474 82 -41 229 -76 323 -76 164 0 346
71 462 181 l62 59 3 -105 3 -105 172 2 172 3 3 1168 2 1167 -175 0 -175 0 0
-460z m-349 -560 c251 -47 420 -331 365 -611 -30 -153 -105 -270 -221 -344
-138 -89 -358 -92 -501 -9 -24 14 -69 54 -102 88 -190 203 -180 574 20 763 46
44 131 92 192 108 61 17 173 19 247 5z"/>
<path d="M120 1745 l0 -1105 518 2 517 3 0 175 0 175 -327 3 -328 2 -2 923 -3
922 -187 3 -188 2 0 -1105z"/>
<path d="M1909 2280 c-308 -64 -523 -277 -615 -610 -28 -99 -26 -337 4 -446
84 -310 298 -527 587 -594 234 -54 477 12 638 176 l46 47 3 -104 3 -104 175 0
175 0 3 808 2 807 -180 0 -180 0 0 -102 0 -102 -47 45 c-105 99 -202 150 -345
180 -112 23 -157 23 -269 -1z m323 -321 c321 -67 473 -495 287 -804 -89 -149
-266 -235 -449 -219 -271 23 -452 250 -438 549 10 199 106 357 268 440 80 42
224 56 332 34z"/>
<path d="M5300 2279 c-238 -49 -444 -215 -551 -443 -82 -176 -103 -418 -53
-611 30 -118 93 -245 164 -332 179 -221 484 -328 741 -263 131 34 243 96 324
180 l40 41 5 -103 5 -103 173 -3 172 -2 0 810 0 810 -175 0 -175 0 0 -100 c0
-55 -4 -100 -9 -100 -5 0 -16 11 -25 25 -24 37 -131 113 -206 147 -71 32 -229
68 -294 67 -22 0 -84 -9 -136 -20z m344 -324 c79 -21 141 -58 206 -124 68 -69
104 -136 130 -237 27 -104 26 -192 -4 -295 -31 -105 -65 -167 -127 -229 -90
-90 -185 -129 -330 -134 -203 -8 -370 103 -454 305 -23 53 -28 83 -32 181 -6
135 2 179 54 287 58 121 164 212 287 245 69 19 199 19 270 1z"/>
<path d="M9103 2280 c-196 -39 -364 -147 -475 -304 -64 -90 -84 -131 -119
-235 -136 -400 31 -854 381 -1040 257 -136 549 -116 771 55 31 23 64 55 75 71
l19 28 5 -105 5 -105 178 -3 177 -2 0 810 0 810 -180 0 -180 0 0 -101 0 -101
-63 59 c-88 82 -197 136 -324 162 -121 25 -150 25 -270 1z m332 -324 c162 -39
294 -175 339 -352 20 -78 21 -222 1 -299 -58 -223 -226 -361 -451 -370 -258
-10 -458 166 -496 435 -38 268 111 522 343 584 70 19 188 20 264 2z"/>
<path d="M3220 2100 l0 -160 415 0 c228 0 415 -3 415 -6 0 -3 -89 -112 -197
-241 -109 -130 -298 -355 -420 -501 l-223 -266 0 -143 0 -143 660 0 660 0 0
160 0 160 -425 0 c-302 0 -425 3 -425 11 0 6 35 52 78 103 43 50 184 217 312
371 129 154 283 338 342 408 l108 128 0 140 0 139 -650 0 -650 0 0 -160z"/>
</g>
</svg>
