<?xml version="1.0" standalone="no"?>
<!DOCTYPE svg PUBLIC "-//W3C//DTD SVG 20010904//EN"
 "http://www.w3.org/TR/2001/REC-SVG-20010904/DTD/svg10.dtd">
<svg version="1.0" xmlns="http://www.w3.org/2000/svg"
 width="1024.000000pt" height="1024.000000pt" viewBox="0 0 1024.000000 1024.000000"
 preserveAspectRatio="xMidYMid meet">
<metadata>
Created by potrace 1.16, written by Peter Selinger 2001-2019
</metadata>
<g transform="translate(0.000000,1024.000000) scale(0.100000,-0.100000)"
fill="#000000" stroke="none">
<path d="M6670 8072 c-8 -4 -40 -23 -70 -43 -139 -92 -258 -167 -290 -185 -19
-10 -37 -21 -40 -25 -11 -11 -220 -139 -229 -139 -5 0 -11 -3 -13 -8 -3 -7
-144 -96 -366 -231 -130 -79 -250 -135 -327 -152 -98 -22 -324 -17 -418 9 -94
27 -243 104 -437 226 -59 38 -100 63 -250 156 -80 49 -150 94 -157 99 -7 6
-28 18 -47 28 -20 9 -36 20 -36 25 0 4 -6 8 -12 8 -7 0 -24 9 -38 20 -31 25
-51 26 -44 3 5 -14 4 -15 -4 -4 -6 8 -8 20 -5 28 3 7 1 13 -5 13 -5 0 -32 15
-58 33 -27 19 -60 39 -74 46 -24 11 -24 11 -6 -3 11 -9 24 -16 28 -16 5 0 8
-55 7 -122 -2 -172 -1 -196 11 -178 5 8 12 11 16 7 4 -4 -3 -17 -15 -28 -12
-12 -20 -28 -17 -36 3 -8 6 -35 6 -59 0 -38 3 -44 21 -44 15 0 19 5 15 16 -3
8 -2 12 4 9 5 -3 9 -17 8 -30 -2 -26 -25 -34 -44 -15 -8 8 -9 -27 -5 -122 1
-10 7 -18 14 -18 7 0 13 -9 14 -20 1 -11 -2 -20 -8 -20 -5 0 -9 8 -10 18 -1
11 -4 8 -8 -8 -6 -21 -5 -74 1 -167 2 -16 11 -16 26 -1 16 16 15 3 0 -22 -11
-16 -9 -22 7 -34 22 -17 60 -21 50 -6 -3 6 4 10 17 9 13 0 17 -3 11 -6 -7 -2
-13 -14 -13 -25 0 -15 -4 -18 -22 -12 -13 3 -27 13 -31 20 -12 21 -26 17 -20
-6 3 -11 9 -17 14 -14 5 3 9 -1 9 -10 0 -9 -8 -13 -25 -11 -28 3 -26 7 -27
-105 0 -93 1 -102 11 -96 5 3 21 -6 35 -19 18 -17 22 -25 12 -25 -8 0 -18 5
-21 10 -12 19 -35 10 -35 -14 0 -26 23 -51 39 -42 5 3 12 0 14 -6 4 -10 8 -9
16 2 5 8 14 11 18 6 4 -5 2 -11 -4 -13 -7 -3 -13 -11 -13 -18 0 -7 -6 -15 -14
-18 -10 -4 -12 0 -9 14 3 10 0 19 -6 19 -6 0 -11 -11 -11 -25 0 -37 -18 -31
-23 8 -2 17 -5 -3 -5 -45 -1 -42 -5 -84 -8 -93 -5 -11 0 -18 15 -22 11 -3 19
-9 16 -13 -3 -5 -38 8 -78 29 -39 21 -148 77 -242 126 -93 48 -174 91 -180 95
-5 4 -53 29 -105 55 -52 27 -147 76 -210 110 -102 55 -191 102 -534 279 -49
25 -91 46 -93 46 -13 0 38 -39 65 -49 17 -8 32 -18 32 -23 0 -5 4 -7 8 -4 5 3
9 -12 10 -34 2 -31 -1 -38 -13 -34 -11 5 -13 2 -9 -10 3 -9 10 -16 16 -16 5 0
7 -52 4 -132 -5 -158 -4 -147 -16 -128 -14 22 -12 -2 5 -50 18 -50 18 -53 5
-45 -6 3 -10 -1 -10 -10 0 -11 -7 -15 -22 -13 -11 2 -23 -3 -25 -9 -3 -7 2
-13 11 -13 10 0 16 -9 16 -26 0 -14 4 -23 10 -19 6 3 10 19 10 35 0 16 5 32
10 35 7 4 9 -26 8 -83 -2 -50 -6 -88 -10 -86 -5 3 -8 1 -8 -5 0 -5 5 -13 10
-16 5 -3 10 -12 10 -18 0 -7 -4 -6 -10 3 -8 13 -10 13 -10 -2 0 -9 4 -20 10
-23 13 -8 13 -65 0 -65 -6 0 -8 11 -4 25 8 34 -1 31 -20 -5 -8 -17 -11 -28 -6
-25 16 10 40 -7 40 -29 0 -17 -2 -18 -10 -6 -6 10 -10 11 -10 3 0 -7 -11 -15
-25 -19 -16 -4 -25 -13 -25 -26 0 -17 2 -16 26 7 28 28 44 26 41 -5 -1 -14 -6
-18 -18 -15 -9 3 -22 -1 -28 -9 -7 -8 -19 -12 -27 -9 -8 3 -14 0 -14 -6 0 -6
6 -11 13 -11 9 0 9 -2 -1 -9 -11 -6 -10 -10 3 -15 10 -4 15 -12 11 -22 -4 -12
-1 -14 13 -9 11 3 22 2 25 -4 7 -11 -41 -24 -56 -15 -6 4 -9 1 -6 -7 3 -8 11
-13 18 -11 8 2 10 -3 7 -13 -4 -8 -2 -15 3 -15 6 0 10 9 10 21 0 12 5 19 13
16 6 -2 12 -11 12 -20 0 -8 3 -19 7 -22 4 -4 6 16 4 44 -1 28 2 45 6 38 12
-18 10 -119 -2 -112 -5 3 -10 -1 -10 -9 0 -9 5 -16 10 -16 6 0 10 -11 10 -25
0 -18 -7 -26 -25 -31 -27 -7 -34 -24 -10 -24 8 0 15 -4 15 -10 0 -5 -4 -10 -8
-10 -4 0 -8 -9 -8 -20 0 -34 20 -16 23 20 6 67 13 41 11 -39 -1 -45 -5 -84
-10 -87 -4 -3 -8 0 -8 5 0 6 -5 11 -11 11 -6 0 -9 -6 -6 -14 3 -8 1 -16 -4
-18 -7 -2 -6 -13 2 -30 6 -15 16 -25 20 -22 5 3 5 14 -1 24 -13 24 -13 30 3
30 8 0 13 -19 14 -55 2 -30 -1 -55 -6 -55 -15 0 -23 18 -11 25 20 12 9 21 -20
17 -17 -2 -30 -8 -30 -13 0 -5 3 -9 8 -9 4 0 19 -10 33 -23 21 -17 27 -31 26
-59 -1 -26 -5 -34 -12 -28 -8 7 -10 0 -7 -22 5 -31 4 -31 -32 -25 -32 5 -36 4
-25 -9 11 -13 23 -13 66 3 9 4 12 -8 11 -41 -1 -25 -5 -40 -9 -35 -3 6 -9 1
-12 -10 -3 -13 0 -21 8 -21 10 0 13 -24 12 -102 0 -57 -2 -93 -4 -80 -3 12 -9
22 -15 22 -5 0 -7 -7 -4 -16 3 -9 6 -25 6 -37 0 -18 2 -19 10 -7 6 10 9 -9 9
-58 0 -42 -4 -70 -10 -67 -5 4 -9 -3 -9 -14 0 -25 -9 -26 -36 -6 -16 13 -16
14 -1 9 10 -4 17 -1 17 6 0 6 -5 8 -10 5 -6 -3 -10 0 -10 7 0 10 -2 11 -8 0
-13 -19 -60 22 -71 61 -6 23 -9 26 -10 11 -1 -32 39 -84 83 -108 22 -11 46
-26 53 -33 7 -6 22 -15 33 -18 11 -3 20 -11 20 -16 0 -6 5 -7 10 -4 6 3 10 2
10 -2 0 -5 17 -17 38 -28 20 -11 70 -41 111 -67 41 -26 78 -48 82 -48 5 0 9
-3 9 -7 0 -5 18 -17 40 -27 22 -11 40 -23 40 -28 0 -4 5 -8 12 -8 11 0 43 -19
135 -82 23 -15 44 -28 48 -28 3 0 21 -10 38 -23 18 -12 41 -27 52 -34 11 -6
243 -151 515 -321 272 -171 545 -340 605 -377 61 -37 133 -82 160 -100 28 -17
93 -58 145 -90 52 -32 111 -68 130 -80 19 -12 89 -55 155 -95 66 -40 136 -83
155 -95 19 -13 60 -30 91 -40 92 -28 113 -18 506 224 24 14 93 57 155 95 62
38 220 136 350 217 131 82 240 149 243 149 3 0 11 5 18 10 7 6 35 25 62 42 28
17 61 38 75 48 14 9 45 27 70 41 25 13 47 26 50 29 12 12 68 48 110 71 25 13
47 26 50 29 6 6 30 21 95 59 28 16 55 33 60 38 6 5 35 24 65 42 30 19 78 49
107 68 28 18 56 33 61 33 6 0 12 3 14 8 2 4 32 25 68 46 36 21 88 54 117 72
28 19 56 34 61 34 6 0 12 4 14 8 2 7 60 44 150 97 9 6 62 38 118 73 56 34 106
62 111 62 5 0 9 4 9 9 0 5 15 15 33 22 42 17 90 66 116 118 21 40 21 47 21
1033 l-1 993 -27 55 c-19 38 -44 68 -82 97 -30 23 -59 42 -64 43 -4 0 -27 13
-50 28 -22 15 -77 49 -121 76 -44 26 -134 81 -200 121 -66 41 -138 84 -160 96
-22 12 -53 31 -70 44 -16 12 -40 25 -52 29 -13 4 -23 12 -23 17 0 5 -5 9 -11
9 -13 0 -233 132 -237 142 -2 5 -9 8 -16 8 -7 0 -27 11 -46 25 -28 21 -45 25
-99 24 -36 0 -73 -3 -81 -7z"/>
<path d="M7868 2988 c-1 -2 -5 -207 -8 -456 -3 -297 -2 -453 5 -456 6 -3 5 -5
-1 -5 -6 -1 -31 20 -55 46 -24 27 -47 48 -51 48 -8 0 -44 24 -63 42 -7 7 -15
9 -19 6 -3 -4 -6 -2 -6 4 0 6 -20 16 -45 23 -24 7 -42 17 -39 22 4 6 -2 7 -15
3 -12 -3 -21 -2 -21 4 0 5 -8 10 -17 10 -10 0 -38 4 -63 10 -57 13 -190 13
-255 0 -27 -5 -58 -10 -67 -10 -10 0 -18 -5 -18 -11 0 -5 -8 -7 -17 -4 -9 4
-19 2 -23 -3 -3 -6 -15 -12 -25 -14 -11 -1 -31 -10 -45 -19 -14 -9 -32 -18
-40 -20 -8 -2 -26 -13 -40 -25 -13 -13 -30 -23 -37 -23 -7 0 -13 -4 -13 -10 0
-5 -22 -25 -50 -42 -27 -18 -50 -37 -50 -41 0 -6 -51 -78 -113 -157 -13 -16
-22 -38 -68 -165 -16 -44 -29 -88 -29 -97 0 -10 -4 -18 -9 -18 -8 0 -11 -37
-12 -175 0 -117 4 -175 12 -170 4 3 9 -12 12 -33 6 -47 11 -64 20 -80 5 -6 6
-16 3 -21 -4 -5 -3 -11 1 -13 5 -1 22 -32 38 -68 57 -124 171 -265 257 -318
18 -11 43 -30 55 -41 23 -22 63 -41 98 -48 10 -2 22 -8 26 -15 4 -6 12 -7 18
-4 6 4 11 2 11 -5 0 -6 8 -9 20 -6 11 3 23 1 26 -4 3 -5 18 -9 34 -9 16 0 31
-3 33 -7 11 -17 246 -5 297 14 8 4 19 5 24 4 4 -1 14 3 20 9 7 5 16 7 20 3 4
-4 10 -3 14 2 8 12 64 39 75 37 4 -1 7 2 7 7 0 5 9 13 21 16 11 4 52 36 90 72
l69 65 0 -90 c0 -50 3 -97 6 -106 5 -14 31 -16 180 -16 l174 0 0 1180 0 1180
-175 0 c-96 0 -176 -1 -177 -2z m-388 -1029 c0 -7 11 -8 30 -4 20 4 30 3 30
-5 0 -7 6 -10 14 -7 7 3 17 2 22 -3 5 -4 26 -13 47 -20 20 -6 37 -16 37 -21 0
-5 5 -9 11 -9 6 0 39 -28 74 -63 62 -63 116 -150 108 -174 -3 -7 1 -13 7 -13
8 0 10 -9 6 -24 -4 -15 -1 -26 7 -29 16 -5 17 -269 1 -274 -7 -2 -10 -12 -8
-21 6 -22 -61 -161 -81 -168 -8 -3 -15 -11 -15 -17 0 -15 -51 -67 -66 -67 -6
0 -14 -7 -18 -15 -3 -8 -15 -15 -26 -15 -12 0 -19 -4 -16 -9 4 -5 -7 -12 -24
-16 -16 -4 -30 -11 -30 -17 0 -6 -7 -8 -15 -5 -8 4 -17 2 -21 -4 -3 -5 -14 -7
-24 -4 -10 3 -21 1 -25 -5 -8 -14 -182 -13 -191 1 -3 6 -15 9 -25 6 -10 -3
-22 -1 -25 5 -3 5 -12 7 -20 4 -8 -3 -14 0 -14 6 0 6 -3 9 -6 5 -21 -20 -208
141 -220 190 -4 13 -10 23 -14 23 -4 0 -15 26 -24 58 -9 31 -20 68 -24 82 -8
29 -7 224 1 259 22 87 64 170 114 227 33 37 108 95 126 98 6 1 19 6 27 11 8 5
26 11 40 13 13 2 27 8 31 13 3 6 17 7 31 4 15 -4 29 -2 32 4 9 15 136 15 136
0z"/>
<path d="M120 1740 l0 -1110 520 0 520 0 -2 185 -3 186 -325 2 -325 2 -3 923
-2 922 -190 0 -190 0 0 -1110z"/>
<path d="M1925 2294 c-16 -3 -37 -8 -45 -11 -8 -3 -23 -5 -32 -4 -10 1 -18 -3
-18 -10 0 -6 -8 -9 -20 -6 -11 3 -20 2 -20 -2 0 -4 -18 -14 -40 -21 -22 -7
-40 -17 -40 -23 0 -5 -7 -6 -16 -3 -8 3 -13 2 -10 -2 3 -5 -10 -15 -29 -22
-19 -8 -35 -18 -35 -22 0 -5 -7 -11 -16 -15 -19 -7 -142 -133 -180 -183 -32
-43 -87 -152 -104 -205 -7 -22 -16 -45 -21 -50 -4 -6 -11 -34 -15 -63 -3 -28
-9 -52 -13 -52 -3 0 -6 -65 -6 -144 0 -79 3 -142 6 -140 3 2 9 -22 12 -53 3
-31 11 -61 16 -66 6 -6 11 -18 11 -27 0 -39 107 -234 162 -293 15 -17 25 -34
22 -39 -3 -4 -2 -8 3 -8 4 0 43 -26 85 -58 89 -66 177 -117 197 -113 7 1 10
-2 7 -7 -3 -6 2 -8 14 -5 11 3 20 1 20 -4 0 -5 8 -9 18 -10 9 -1 35 -6 57 -13
52 -14 248 -14 300 0 22 7 48 12 58 13 9 1 17 4 17 8 0 6 46 21 71 23 3 1 17
9 30 19 13 10 38 26 54 37 55 36 67 45 96 72 16 14 29 31 29 37 0 6 5 11 10
11 6 0 10 -42 10 -105 l0 -105 183 2 182 3 3 812 2 813 -22 5 c-13 3 -95 4
-183 3 l-160 -3 -5 -102 -5 -102 -66 62 c-81 76 -107 97 -119 97 -14 0 -84 34
-92 45 -4 5 -10 6 -14 2 -4 -4 -13 -2 -21 5 -7 6 -16 8 -20 5 -3 -4 -12 -2
-19 4 -14 11 -235 21 -289 13z m261 -335 c3 -6 15 -8 26 -6 11 3 28 2 37 -3 9
-4 37 -16 64 -25 26 -9 47 -21 47 -26 0 -6 4 -8 9 -4 5 3 16 -4 24 -15 7 -11
16 -17 19 -15 3 3 26 -17 52 -46 49 -55 111 -172 102 -194 -3 -8 0 -15 6 -17
6 -2 13 -50 17 -113 7 -132 -9 -220 -59 -313 -52 -98 -187 -211 -252 -212 -10
0 -18 -5 -18 -11 0 -7 -10 -9 -25 -5 -14 4 -25 2 -25 -4 0 -6 -37 -10 -95 -10
-58 0 -95 4 -95 10 0 6 -11 8 -25 4 -16 -4 -25 -2 -25 6 0 6 -5 8 -10 5 -6 -3
-23 3 -39 14 -15 11 -31 18 -35 14 -3 -3 -6 -1 -6 6 0 7 -4 10 -9 6 -5 -3 -15
1 -23 8 -7 7 -26 23 -43 35 -56 44 -121 146 -139 219 -10 37 -21 82 -25 98 -8
32 -7 147 3 204 14 84 80 221 106 221 5 0 10 5 10 12 0 16 40 58 56 58 6 0 14
7 18 15 3 8 12 15 21 15 8 0 15 5 15 11 0 5 5 7 10 4 6 -3 10 -2 10 3 0 10 53
35 77 36 6 1 15 4 19 8 4 4 17 5 29 2 13 -3 26 -1 29 5 9 14 133 14 142 0z"/>
<path d="M5325 2293 c-16 -2 -37 -7 -45 -10 -8 -3 -23 -5 -32 -4 -10 1 -18 -3
-18 -9 0 -7 -8 -9 -20 -5 -11 3 -20 2 -20 -2 0 -5 -25 -17 -55 -28 -30 -10
-55 -21 -55 -25 0 -4 -12 -13 -27 -21 -58 -31 -192 -159 -234 -225 -15 -22
-41 -69 -59 -105 -18 -35 -36 -65 -41 -67 -4 -2 -5 -10 -2 -18 3 -8 0 -14 -6
-14 -6 0 -8 -6 -5 -14 3 -8 1 -17 -5 -20 -6 -4 -8 -13 -5 -20 3 -8 1 -17 -5
-21 -6 -3 -11 -19 -11 -36 0 -16 -4 -29 -9 -29 -5 0 -8 -74 -7 -165 0 -91 4
-165 7 -165 3 0 9 -20 12 -45 4 -24 11 -53 17 -62 5 -10 19 -43 30 -74 19 -53
83 -168 118 -212 39 -49 157 -157 171 -157 5 0 11 -7 15 -15 3 -8 9 -15 13
-14 21 4 33 -2 27 -13 -4 -6 -3 -8 4 -4 6 3 13 2 17 -4 4 -6 11 -8 16 -5 5 4
9 2 9 -4 0 -5 14 -12 30 -16 17 -4 30 -11 30 -17 0 -6 7 -8 15 -4 8 3 15 1 15
-5 0 -6 7 -8 16 -5 9 4 22 2 28 -3 37 -29 292 -32 366 -4 8 4 23 5 33 4 9 -1
17 2 17 8 0 6 7 8 15 5 8 -4 15 -2 15 3 0 6 18 16 40 23 22 7 40 17 40 21 0 4
16 13 35 20 20 7 42 24 51 36 8 13 19 21 24 18 5 -3 21 12 34 34 42 66 46 61
46 -58 l0 -111 174 0 c149 0 175 2 180 16 3 9 6 372 6 809 0 662 -2 794 -14
804 -9 8 -65 11 -177 9 l-164 -3 -5 -104 -5 -103 -53 56 c-29 30 -55 55 -58
55 -11 0 -64 36 -64 44 0 4 -4 6 -9 3 -5 -3 -11 0 -14 8 -3 7 -22 16 -41 20
-20 4 -36 12 -36 17 0 6 -9 8 -20 4 -11 -3 -20 -2 -20 4 0 5 -8 10 -17 10 -10
0 -38 4 -63 10 -44 10 -184 12 -245 4z m255 -334 c0 -7 11 -9 30 -5 18 3 30 1
30 -5 0 -6 9 -8 20 -4 11 3 20 2 20 -3 0 -5 18 -14 40 -21 22 -6 40 -16 40
-21 0 -6 6 -10 14 -10 7 0 21 -11 30 -25 9 -14 21 -23 25 -20 25 15 150 -196
137 -230 -3 -8 -2 -15 3 -15 11 0 24 -97 23 -162 -2 -80 -22 -170 -54 -234
-29 -61 -125 -180 -136 -170 -3 3 -12 -3 -19 -14 -8 -11 -19 -18 -24 -15 -5 4
-9 2 -9 -2 0 -10 -59 -37 -77 -36 -7 1 -13 -4 -13 -9 0 -6 -11 -7 -24 -4 -14
3 -28 2 -31 -4 -9 -14 -185 -13 -185 1 0 6 -9 8 -20 4 -12 -4 -27 -2 -34 4 -7
6 -23 12 -35 14 -12 2 -30 11 -41 19 -10 9 -21 14 -24 11 -3 -4 -6 -1 -6 5 0
7 -7 12 -15 12 -21 0 -115 94 -115 115 0 8 -5 15 -11 15 -14 0 -56 95 -70 156
-23 109 -8 344 23 344 5 0 7 4 3 10 -8 14 20 76 48 104 14 14 23 27 21 29 -7
7 92 95 132 118 22 12 53 24 69 26 17 3 33 9 36 15 3 5 17 6 31 3 15 -4 29 -2
32 4 10 15 136 15 136 0z"/>
<path d="M9105 2289 c-22 -5 -48 -10 -57 -10 -10 0 -20 -5 -23 -10 -4 -5 -11
-6 -17 -3 -6 4 -13 3 -17 -2 -3 -5 -31 -20 -61 -34 -30 -14 -69 -35 -87 -47
-18 -12 -33 -20 -33 -18 0 3 -9 -3 -19 -12 -11 -10 -38 -34 -61 -53 -53 -44
-138 -165 -181 -255 -19 -38 -37 -71 -41 -73 -4 -2 -5 -9 -2 -17 3 -7 1 -16
-5 -19 -6 -4 -13 -29 -17 -56 -4 -27 -10 -47 -14 -45 -9 6 -11 -25 -11 -180 0
-157 2 -185 12 -185 5 0 9 -10 9 -22 0 -42 64 -194 116 -275 29 -45 50 -84 47
-87 -4 -3 -2 -6 3 -6 6 0 37 -26 71 -57 73 -70 101 -93 111 -93 5 0 18 -9 31
-21 12 -11 44 -29 72 -38 27 -10 46 -21 41 -26 -4 -4 3 -5 16 -2 12 3 22 1 22
-5 0 -6 9 -8 20 -5 11 3 23 1 26 -4 3 -5 18 -9 33 -9 15 0 31 -3 34 -6 9 -9
225 -9 234 0 3 3 19 6 34 6 15 0 30 4 34 10 3 5 12 7 20 3 8 -3 15 0 15 7 0 7
8 9 21 5 15 -5 19 -4 15 4 -4 6 0 11 9 11 8 0 33 11 55 25 22 14 44 25 49 25
5 0 14 7 21 15 7 8 15 13 19 11 3 -2 26 20 51 49 25 30 47 54 50 54 3 1 5 -45
5 -101 l0 -103 183 -3 182 -2 -2 817 -3 818 -160 3 c-88 1 -170 0 -182 -3 -22
-5 -23 -11 -23 -90 0 -47 -4 -85 -9 -85 -5 0 -21 14 -34 30 -14 17 -30 30 -34
30 -5 0 -18 8 -29 18 -27 24 -72 50 -116 69 -21 9 -38 20 -38 25 0 5 -9 6 -20
3 -11 -4 -20 -2 -20 4 0 6 -7 8 -15 5 -8 -4 -22 -1 -31 6 -19 17 -243 23 -299
9z m271 -330 c3 -6 17 -8 29 -5 13 3 27 1 30 -4 4 -6 12 -9 18 -8 27 6 148
-66 197 -118 57 -61 125 -192 115 -224 -4 -11 -2 -20 3 -20 15 0 24 -111 16
-194 -4 -42 -9 -74 -13 -72 -3 2 -7 -11 -8 -29 -1 -18 -13 -54 -26 -81 -30
-60 -106 -156 -117 -149 -4 3 -15 -7 -24 -20 -9 -14 -21 -23 -26 -20 -6 4 -10
2 -10 -2 0 -13 -69 -47 -91 -46 -10 1 -19 -3 -19 -8 0 -6 -9 -8 -19 -4 -11 3
-22 1 -26 -5 -9 -14 -195 -13 -195 1 0 6 -9 9 -20 6 -11 -3 -23 -1 -26 5 -3 5
-12 7 -19 4 -8 -3 -25 4 -39 15 -14 11 -28 20 -31 19 -3 0 -9 0 -14 0 -17 0
-139 126 -164 170 -51 90 -65 154 -62 285 2 106 17 200 34 215 3 3 8 14 9 25
2 11 8 22 13 23 5 2 9 10 9 18 0 8 7 17 15 20 8 4 12 10 10 15 -11 17 124 138
146 132 5 -2 9 2 9 7 0 6 3 10 8 9 15 -2 52 14 52 23 0 5 9 6 20 3 12 -4 20
-2 20 5 0 8 9 10 24 6 14 -3 28 -2 31 4 8 13 132 13 141 -1z"/>
<path d="M3227 2263 c-4 -3 -7 -80 -7 -170 l0 -164 415 3 c346 3 412 1 398
-10 -10 -7 -17 -17 -16 -22 2 -5 -12 -21 -30 -36 -17 -15 -32 -31 -32 -35 0
-5 -15 -26 -32 -46 -58 -67 -167 -198 -189 -226 -12 -15 -27 -27 -33 -27 -6 0
-10 -4 -8 -9 2 -10 -37 -60 -95 -123 -16 -16 -28 -33 -28 -36 0 -4 -30 -38
-65 -76 -36 -39 -65 -72 -65 -74 0 -10 -113 -142 -121 -142 -5 0 -9 -5 -9 -11
0 -6 -22 -36 -50 -67 l-50 -56 0 -153 0 -153 660 0 660 0 5 22 c3 13 4 88 3
168 l-3 145 -428 3 -427 2 16 25 c9 14 23 25 30 25 8 0 13 4 11 9 -2 9 48 75
96 124 15 16 27 31 27 34 0 9 54 68 65 71 6 1 10 5 10 10 0 13 42 62 54 62 6
0 10 4 8 9 -2 9 45 71 93 122 14 15 30 33 35 42 31 46 102 126 112 126 7 1 12
5 10 10 -2 10 37 60 96 123 15 16 27 32 27 34 0 6 87 108 133 156 27 29 27 29
27 173 l0 145 -648 0 c-357 0 -652 -3 -655 -7z"/>
</g>
</svg>
