<?xml version="1.0" standalone="no"?>
<!DOCTYPE svg PUBLIC "-//W3C//DTD SVG 20010904//EN"
 "http://www.w3.org/TR/2001/REC-SVG-20010904/DTD/svg10.dtd">
<svg version="1.0" xmlns="http://www.w3.org/2000/svg"
 width="1440.000000pt" height="2043.000000pt" viewBox="0 0 1440.000000 2043.000000"
 preserveAspectRatio="xMidYMid meet">
<metadata>
Created by potrace 1.16, written by Peter Selinger 2001-2019
</metadata>
<g transform="translate(0.000000,2043.000000) scale(0.100000,-0.100000)"
fill="#000000" stroke="none">
<path d="M6945 20420 c-215 -27 -430 -75 -615 -138 -1151 -394 -2020 -1493
-2255 -2852 -28 -163 -55 -409 -55 -500 l0 -60 -1552 -2 -1553 -3 -46 -21
c-63 -29 -110 -74 -139 -131 -20 -39 -26 -66 -28 -143 -2 -52 29 -790 67
-1640 39 -850 123 -2690 186 -4090 185 -4082 181 -4011 205 -4124 30 -141 63
-234 130 -371 188 -380 526 -632 927 -690 97 -14 609 -15 5043 -13 l4935 3
105 27 c246 62 444 173 621 348 194 192 337 464 384 736 8 47 22 221 30 387 8
166 28 577 45 912 47 955 117 2373 155 3150 19 391 49 982 65 1315 16 333 48
972 70 1420 22 448 58 1182 81 1630 22 448 41 876 42 950 2 124 0 139 -22 183
-29 61 -83 113 -141 141 l-45 21 -1551 3 -1552 2 -7 93 c-42 578 -174 1090
-404 1562 -343 703 -863 1252 -1496 1581 -287 149 -537 233 -864 291 -129 23
-178 26 -421 29 -151 1 -306 -1 -345 -6z m552 -875 c869 -114 1616 -801 1932
-1776 85 -262 131 -510 155 -836 l4 -63 -2340 0 -2341 0 7 98 c44 627 251
1206 599 1666 80 106 110 141 231 265 354 361 799 589 1272 650 113 14 354 12
481 -4z m-32 -4535 c489 -45 966 -178 1380 -385 210 -105 381 -205 439 -256
68 -60 63 -77 -88 -319 -70 -113 -137 -213 -148 -222 -35 -31 -68 -21 -188 54
-497 310 -1029 474 -1610 495 -492 18 -930 -140 -1225 -441 -96 -98 -159 -189
-219 -316 -63 -136 -87 -238 -93 -400 -4 -112 -1 -151 15 -227 82 -368 340
-647 828 -895 184 -93 333 -154 624 -253 470 -160 747 -270 1055 -419 1033
-499 1484 -1121 1416 -1953 -29 -361 -131 -669 -311 -943 -369 -560 -1010
-887 -1842 -940 -262 -17 -670 17 -983 81 -475 98 -947 289 -1305 528 -264
176 -470 342 -470 379 0 19 268 422 320 481 46 53 73 43 253 -92 443 -332 871
-535 1355 -641 244 -53 314 -61 567 -61 259 0 380 15 600 70 336 84 591 221
795 425 149 148 242 307 295 501 32 115 45 344 26 454 -56 326 -266 628 -601
867 -244 174 -507 299 -925 441 -584 199 -1227 460 -1424 579 -519 313 -845
711 -960 1173 -51 207 -60 468 -22 679 147 826 882 1443 1851 1555 107 12 465
13 595 1z"/>
<path d="M925 4480 c-404 -64 -701 -292 -812 -625 -24 -73 -27 -94 -27 -235
-1 -169 9 -219 66 -334 83 -170 255 -334 453 -434 79 -39 374 -151 560 -212
303 -99 460 -183 582 -308 237 -243 170 -597 -144 -759 -386 -201 -859 -127
-1317 204 -66 49 -102 54 -133 20 -11 -12 -50 -68 -87 -125 -84 -128 -85 -148
-11 -205 180 -138 336 -222 533 -287 646 -211 1280 -69 1545 347 126 198 176
451 133 676 -49 254 -240 467 -569 636 -149 77 -269 125 -527 211 -244 81
-392 147 -491 221 -213 158 -261 395 -122 597 111 162 314 254 558 254 241 -1
473 -69 699 -206 33 -20 72 -36 88 -36 34 0 50 17 133 141 81 121 84 145 23
190 -63 46 -289 154 -397 189 -172 56 -318 80 -506 85 -93 2 -197 0 -230 -5z"/>
<path d="M2636 4474 c-14 -14 -16 -181 -16 -1685 0 -1656 0 -1669 20 -1689 18
-18 33 -20 178 -20 86 0 164 5 172 10 13 8 16 92 20 617 7 670 3 634 73 783
43 92 166 214 268 263 40 20 101 44 134 52 75 19 202 19 283 0 170 -40 333
-172 409 -330 61 -129 63 -148 63 -787 0 -511 2 -578 16 -592 23 -24 335 -24
358 0 14 14 16 82 16 599 0 360 -4 613 -11 660 -62 447 -442 804 -899 844
-233 21 -480 -42 -664 -169 l-46 -31 0 735 c0 717 0 736 -19 746 -11 6 -88 10
-180 10 -132 0 -162 -3 -175 -16z"/>
<path d="M5860 3219 c-99 -13 -234 -55 -335 -104 -273 -133 -474 -378 -557
-680 -31 -111 -36 -352 -9 -477 44 -211 131 -369 285 -523 109 -109 205 -174
340 -231 357 -151 770 -100 1081 133 104 79 182 165 257 284 228 363 207 849
-52 1184 -239 309 -620 465 -1010 414z m355 -395 c186 -61 338 -193 420 -365
121 -256 68 -556 -135 -759 -88 -88 -157 -131 -277 -173 -79 -28 -100 -31
-208 -31 -98 -1 -134 3 -195 23 -127 39 -206 87 -301 181 -137 136 -199 283
-199 470 0 120 19 202 72 310 76 155 246 295 421 347 111 33 295 31 402 -3z"/>
<path d="M10826 3220 c-391 -62 -710 -337 -829 -715 -39 -126 -50 -217 -44
-377 10 -285 101 -494 301 -693 105 -105 149 -137 273 -199 166 -83 321 -116
546 -116 216 0 402 38 572 115 157 72 288 178 288 232 0 40 -147 261 -179 269
-18 5 -38 -5 -86 -43 -118 -92 -218 -143 -353 -179 -55 -15 -106 -19 -240 -19
-150 0 -179 3 -245 23 -148 47 -269 125 -355 230 -51 62 -121 198 -131 255
l-6 37 787 0 c773 0 787 0 815 20 42 30 53 76 45 178 -32 402 -258 740 -601
899 -158 73 -397 108 -558 83z m274 -382 c76 -14 208 -79 279 -138 87 -72 170
-187 195 -267 l7 -23 -610 0 -611 0 19 50 c60 159 190 287 354 350 118 46 225
54 367 28z"/>
<path d="M13240 3220 c-178 -25 -370 -113 -512 -236 -352 -304 -465 -831 -268
-1252 145 -309 412 -517 765 -594 39 -8 133 -13 265 -13 220 0 295 10 450 62
212 71 410 206 410 280 0 25 -114 217 -152 255 -28 28 -50 22 -124 -37 -88
-70 -196 -126 -309 -161 -83 -26 -103 -28 -265 -28 -157 -1 -183 1 -250 22
-249 79 -427 252 -485 473 l-13 49 784 0 c852 0 826 -2 852 55 7 14 12 66 12
115 0 388 -249 769 -608 932 -151 69 -383 101 -552 78z m315 -392 c130 -38
245 -112 329 -215 45 -54 116 -175 116 -197 0 -3 -275 -6 -611 -6 l-610 0 6
23 c38 133 176 289 315 355 149 71 301 85 455 40z"/>
<path d="M7456 3204 c-14 -14 -16 -172 -16 -1590 0 -1067 3 -1582 10 -1595 10
-18 23 -19 184 -19 149 0 175 2 180 16 3 9 6 311 6 672 l0 655 23 -20 c38 -37
179 -118 259 -151 109 -46 226 -71 353 -79 539 -30 1010 338 1111 866 19 100
19 295 -1 399 -92 481 -503 835 -1001 859 -136 7 -275 -12 -393 -52 -90 -30
-232 -104 -298 -155 l-53 -40 0 113 c0 75 -4 117 -12 125 -8 8 -61 12 -174 12
-134 0 -165 -3 -178 -16z m1212 -379 c195 -46 375 -187 461 -361 52 -107 64
-152 69 -280 4 -101 1 -132 -17 -198 -31 -114 -78 -199 -167 -305 -24 -28
-138 -113 -183 -136 -134 -68 -328 -93 -465 -61 -257 61 -465 264 -527 516
-20 79 -17 250 6 330 49 178 185 347 340 427 77 39 153 67 205 76 61 10 220 6
278 -8z"/>
</g>
</svg>
