<?xml version="1.0" standalone="no"?>
<!DOCTYPE svg PUBLIC "-//W3C//DTD SVG 20010904//EN"
 "http://www.w3.org/TR/2001/REC-SVG-20010904/DTD/svg10.dtd">
<svg version="1.0" xmlns="http://www.w3.org/2000/svg"
 width="1440.000000pt" height="2043.000000pt" viewBox="0 0 1440.000000 2043.000000"
 preserveAspectRatio="xMidYMid meet">

<g transform="translate(0.000000,2043.000000) scale(0.100000,-0.100000)"
fill="#000000" stroke="none">
<path d="M7052 20419 c-1076 -78 -2039 -761 -2586 -1834 -246 -482 -403 -1060
-434 -1600 l-7 -120 -1560 -5 -1560 -5 -42 -22 c-88 -47 -141 -124 -152 -222
-5 -44 408 -9315 433 -9706 30 -474 311 -925 701 -1122 92 -47 181 -80 285
-106 l85 -22 4935 -3 c3707 -2 4957 0 5024 8 231 31 446 122 626 266 201 160
353 373 439 617 71 202 50 -151 312 5176 239 4824 242 4894 224 4949 -13 41
-31 69 -70 108 -91 91 52 84 -1695 84 l-1537 0 -7 103 c-25 377 -95 737 -210
1082 -406 1214 -1337 2097 -2450 2325 -224 46 -528 66 -754 49z m508 -874
c297 -50 554 -152 816 -324 603 -394 1036 -1096 1173 -1901 18 -107 35 -266
44 -402 l4 -58 -2349 0 -2348 0 0 24 c0 71 24 299 46 425 137 816 561 1508
1174 1914 266 177 592 297 910 336 106 14 417 5 530 -14z m38 -4539 c549 -73
1026 -232 1478 -491 224 -129 273 -174 260 -238 -7 -34 -233 -405 -274 -449
-36 -39 -75 -36 -148 8 -315 194 -470 270 -724 359 -459 159 -1014 216 -1376
141 -321 -67 -584 -205 -782 -410 -102 -105 -158 -184 -212 -299 -158 -332
-132 -690 73 -992 96 -140 301 -321 493 -435 197 -116 483 -243 734 -325 1229
-403 1944 -829 2294 -1368 239 -366 310 -823 206 -1322 -117 -565 -476 -1036
-1000 -1313 -238 -125 -525 -213 -880 -269 -179 -28 -664 -25 -895 6 -408 54
-759 148 -1100 293 -282 120 -500 248 -785 462 -158 118 -230 185 -230 212 0
12 47 91 105 177 229 341 242 356 303 342 15 -3 81 -46 147 -96 354 -269 668
-440 1040 -569 342 -118 728 -178 1024 -159 826 51 1408 419 1567 991 32 115
44 335 24 455 -65 405 -385 774 -904 1044 -192 99 -332 157 -633 260 -408 139
-971 360 -1253 491 -189 88 -442 265 -619 434 -332 316 -517 695 -540 1104
-29 532 151 988 535 1360 178 172 306 261 539 376 243 119 497 193 785 229
145 18 583 13 748 -9z"/>
<path d="M892 4465 c-400 -73 -695 -321 -782 -659 -27 -107 -27 -274 0 -380
64 -251 280 -475 579 -601 125 -53 335 -130 530 -194 268 -88 436 -182 545
-303 265 -292 127 -685 -288 -823 -153 -50 -322 -65 -482 -41 -251 37 -458
123 -684 285 -122 87 -122 87 -219 -58 -98 -145 -100 -153 -53 -196 56 -54
284 -198 379 -239 552 -243 1162 -213 1523 73 215 171 330 419 330 709 0 140
-20 227 -74 337 -138 278 -424 465 -1016 661 -422 141 -588 245 -674 424 -29
60 -31 73 -31 171 0 101 1 108 37 180 65 131 192 233 353 286 65 21 106 27
215 30 252 9 480 -52 721 -193 94 -55 118 -56 157 -6 59 75 132 195 132 218 0
34 -40 66 -160 128 -194 101 -381 161 -593 191 -125 18 -347 18 -445 0z"/>
<path d="M2642 4468 c-16 -16 -18 -3329 -2 -3359 10 -18 23 -19 173 -19 114 0
167 4 175 12 9 9 12 144 12 548 0 557 6 662 40 766 58 173 218 327 400 385
284 91 608 -46 739 -312 70 -142 71 -150 71 -805 0 -521 2 -582 16 -588 9 -3
87 -6 174 -6 123 0 160 3 169 14 9 11 11 173 9 643 -4 715 -2 692 -94 882
-118 246 -320 425 -579 513 -202 68 -394 72 -599 13 -90 -26 -208 -82 -286
-134 -25 -17 -48 -31 -52 -31 -5 0 -8 333 -8 739 0 665 -2 739 -16 745 -31 12
-329 7 -342 -6z"/>
<path d="M5820 3203 c-542 -96 -924 -592 -870 -1127 14 -139 41 -230 105 -361
135 -276 376 -472 683 -556 99 -27 330 -37 440 -19 437 70 785 400 874 830 27
127 21 334 -11 460 -26 100 -91 241 -151 331 -56 82 -187 213 -269 268 -238
161 -525 223 -801 174z m364 -363 c195 -50 363 -184 450 -360 60 -122 80 -214
73 -340 -15 -292 -215 -543 -502 -628 -102 -31 -266 -35 -365 -9 -316 84 -530
354 -530 671 0 114 20 198 70 302 64 132 204 268 337 325 141 61 323 76 467
39z"/>
<path d="M10789 3204 c-514 -93 -880 -591 -829 -1128 35 -362 244 -667 569
-830 174 -88 308 -116 550 -116 270 0 501 61 687 182 147 95 176 135 145 196
-29 56 -134 204 -152 215 -21 13 -30 8 -114 -58 -171 -135 -368 -193 -613
-182 -153 7 -217 22 -342 84 -159 78 -281 218 -340 389 -37 105 -129 94 769
94 l789 0 31 26 c40 34 47 75 32 206 -29 262 -130 472 -315 653 -105 103 -212
171 -345 221 -162 61 -354 79 -522 48z m326 -359 c33 -8 98 -34 145 -57 114
-55 239 -178 293 -287 21 -40 37 -80 37 -87 0 -12 -103 -14 -621 -14 l-620 0
6 23 c14 48 76 164 111 207 86 104 200 177 326 210 91 24 241 26 323 5z"/>
<path d="M13207 3205 c-106 -20 -240 -72 -339 -131 -156 -93 -327 -288 -403
-459 -124 -280 -122 -610 4 -881 123 -261 344 -457 621 -548 148 -49 239 -60
454 -53 159 4 195 9 299 35 138 36 311 116 405 186 111 85 115 105 40 220 -73
113 -107 156 -125 156 -8 0 -47 -25 -86 -56 -154 -121 -325 -182 -529 -191
-275 -12 -473 59 -632 227 -35 38 -77 90 -92 116 -34 57 -74 166 -74 199 l0
25 789 0 c775 0 789 0 814 20 42 33 49 73 37 198 -42 449 -344 812 -769 923
-102 27 -307 34 -414 14z m328 -360 c151 -38 309 -149 396 -276 37 -55 79
-139 79 -160 0 -5 -251 -9 -620 -9 -415 0 -620 3 -620 10 0 27 54 138 95 195
79 112 212 201 355 239 73 20 240 20 315 1z"/>
<path d="M7462 3198 c-15 -15 -18 -3154 -2 -3178 7 -12 39 -16 159 -18 96 -2
157 1 170 8 21 11 21 14 21 675 0 366 3 665 7 665 3 0 31 -19 61 -41 68 -52
200 -123 278 -149 132 -46 192 -55 364 -54 146 1 177 4 264 27 575 154 914
748 750 1313 -50 175 -133 314 -268 450 -195 196 -425 298 -702 311 -139 7
-250 -7 -369 -44 -95 -30 -240 -103 -317 -161 -30 -23 -58 -42 -61 -42 -4 0
-8 55 -9 123 l-3 122 -165 3 c-120 2 -169 -1 -178 -10z m1203 -363 c164 -34
335 -152 431 -297 100 -150 139 -356 99 -533 -52 -237 -236 -436 -470 -511
-174 -56 -354 -41 -525 43 -79 39 -109 61 -181 132 -138 139 -203 293 -203
486 0 121 19 199 75 313 65 133 203 266 336 323 132 57 296 74 438 44z"/>
</g>
</svg>
